<svg width="24" height="24" viewBox="0 0 24 24" fill="none" xmlns="http://www.w3.org/2000/svg">
<path d="M20 19.8C20 20.1183 19.8793 20.4235 19.6645 20.6485C19.4497 20.8736 19.1584 21 18.8546 21H5.14537C4.8416 21 4.55027 20.8736 4.33547 20.6485C4.12067 20.4235 4 20.1183 4 19.8V4.2C4 3.88174 4.12067 3.57652 4.33547 3.35147C4.55027 3.12643 4.8416 3 5.14537 3H16.599C16.8977 3.00003 17.1846 3.12232 17.3985 3.3408L19.6549 5.6472C19.7642 5.75905 19.851 5.89269 19.9103 6.04025C19.9696 6.18781 20.0001 6.34631 20 6.5064V19.8Z" stroke="#4E4B66" stroke-width="1.8" stroke-linecap="round" stroke-linejoin="round"/>
<path d="M9.15555 10.2001C10.1044 10.2001 10.8736 9.39421 10.8736 8.4001C10.8736 7.40598 10.1044 6.6001 9.15555 6.6001C8.2067 6.6001 7.4375 7.40598 7.4375 8.4001C7.4375 9.39421 8.2067 10.2001 9.15555 10.2001Z" stroke="#4E4B66" stroke-width="1.8" stroke-linecap="round" stroke-linejoin="round"/>
<path d="M17.2041 16.9597L14.207 12.2493C14.1374 12.1395 14.0432 12.0493 13.9327 11.9863C13.8222 11.9234 13.6987 11.8897 13.5729 11.8882C13.4471 11.8867 13.3229 11.9175 13.211 11.9777C13.0992 12.038 13.0031 12.126 12.9311 12.2341L10.8763 15.3101L9.60266 14.2397C9.51906 14.1695 9.42242 14.1183 9.31891 14.0893C9.21539 14.0604 9.10726 14.0544 9.0014 14.0716C8.89553 14.0888 8.79425 14.129 8.70399 14.1894C8.61374 14.2499 8.53648 14.3294 8.47715 14.4229L6.86523 16.9597" stroke="#4E4B66" stroke-width="1.8" stroke-linecap="round" stroke-linejoin="round"/>
</svg>
