<svg width="24" height="24" viewBox="0 0 24 24" fill="none" xmlns="http://www.w3.org/2000/svg">
<path d="M5.45417 2.00118C5.08475 1.98599 4.72435 2.11773 4.45183 2.36758C4.1793 2.61743 4.01685 2.96504 4 3.33436V20.6656C4.01685 21.035 4.1793 21.3826 4.45183 21.6324C4.72435 21.8823 5.08475 22.014 5.45417 21.9988H18.5452C18.9147 22.014 19.275 21.8823 19.5476 21.6324C19.8201 21.3826 19.9826 21.035 19.9994 20.6656V6.55264C19.998 6.37462 19.9594 6.19886 19.886 6.03662C19.8127 5.87439 19.7063 5.72926 19.5736 5.61053L16.0618 2.39136C15.7794 2.13793 15.4128 1.99882 15.0334 2.00118H5.45417Z" stroke="#4E4B66" stroke-width="1.8" stroke-linecap="round" stroke-linejoin="round"/>
<path d="M14.666 2.00146V5.81079C14.6663 6.21474 14.8268 6.60208 15.1125 6.88772C15.3982 7.17336 15.7855 7.33393 16.1895 7.33417H19.9991" stroke="#4E4B66" stroke-width="1.8" stroke-linecap="round" stroke-linejoin="round"/>
</svg>
