<svg width="40" height="40" viewBox="0 0 40 40" fill="none" xmlns="http://www.w3.org/2000/svg">
<rect width="40" height="40" fill="white"/>
<rect width="40" height="40" fill="#0AC143"/>
<path fill-rule="evenodd" clip-rule="evenodd" d="M28.4026 11.5501C26.173 9.31865 23.2079 8.08914 20.0489 8.08789C13.5398 8.08789 8.24225 13.3834 8.23964 19.8925C8.23877 21.9732 8.78258 24.0042 9.81595 25.7945L8.14062 31.912L14.4009 30.2704C16.1257 31.2109 18.0677 31.7065 20.0442 31.7073H20.049C26.5574 31.7073 31.8555 26.4111 31.8581 19.902C31.8594 16.7476 30.6322 13.7815 28.4026 11.5501V11.5501ZM20.049 29.7134H20.045C18.2838 29.7128 16.5563 29.2398 15.0493 28.3458L14.6909 28.1331L10.976 29.1073L11.9676 25.4864L11.7342 25.1152C10.7517 23.5529 10.2327 21.7473 10.2335 19.8933C10.2357 14.4832 14.6388 10.0817 20.0529 10.0817C22.6746 10.0827 25.139 11.1047 26.9921 12.9594C28.8453 14.8141 29.8653 17.2794 29.8643 19.9012C29.862 25.3117 25.4589 29.7134 20.049 29.7134V29.7134ZM25.4329 22.3647C25.1378 22.217 23.6871 21.5034 23.4167 21.405C23.1462 21.3065 22.9495 21.2573 22.7528 21.5526C22.5561 21.8479 21.9906 22.5123 21.8184 22.7092C21.6463 22.9061 21.4742 22.9307 21.1791 22.783C20.8841 22.6354 19.9333 22.3239 18.8062 21.319C17.9291 20.5369 17.3369 19.5708 17.1648 19.2755C16.9926 18.9802 17.1465 18.8205 17.2942 18.6735C17.4269 18.5413 17.5892 18.329 17.7368 18.1567C17.8843 17.9845 17.9335 17.8614 18.0318 17.6646C18.1302 17.4677 18.081 17.2954 18.0072 17.1478C17.9334 17.0001 17.3434 15.5482 17.0974 14.9576C16.858 14.3824 16.6147 14.4603 16.4336 14.4512C16.2616 14.4427 16.0647 14.4409 15.868 14.4409C15.6713 14.4409 15.3517 14.5147 15.0812 14.81C14.8107 15.1053 14.0485 15.8189 14.0485 17.2708C14.0485 18.7227 15.1058 20.1253 15.2533 20.3222C15.4008 20.5191 17.334 23.4986 20.294 24.7763C20.9979 25.0802 21.5476 25.2617 21.9761 25.3977C22.683 25.6221 23.3262 25.5905 23.8347 25.5145C24.4016 25.4299 25.5804 24.8009 25.8263 24.1119C26.0722 23.4229 26.0722 22.8323 25.9984 22.7092C25.9247 22.5862 25.728 22.5123 25.4329 22.3647" fill="white"/>
</svg>
