<svg version="1.2" xmlns="http://www.w3.org/2000/svg" viewBox="0 0 2073 1041" width="2073" height="1041">
	<title>David-Hargitai-Sign-svg</title>
	<style>
		.s0 { fill: #000000 } 
		.s1 { fill: #ffffff } 
	</style>
	<g id="Layer-1">
		<g id="Folder 2">
			<path id="Layer" fill-rule="evenodd" class="s0" d="m635.8 1q36.2 2.5 73.7 17.5 37.5 15 55 27.5 17.5 12.5 40 35 22.5 22.5 48.8 61.3 26.2 38.7 47.5 90 21.2 51.2 28.7 90 7.5 38.7 7.5 86.2 0 47.5-6.2 82.5-6.3 35-13.8 57.5-7.5 22.5-30 72.5-22.5 50-66.2 113.8-43.8 63.7-87.5 108.7-43.8 45-91.3 81.3-47.5 36.2-91.2 58.7-43.8 22.5-95 37.5-51.3 15-76.3 17.5-25 2.5-56.2 1.3-31.3-1.3-68.8-10.1-37.5-8.7-72.5-24.9-35-16.3-81.2-43.8-46.3-27.5-57.5-28.8-11.3-1.2-15-5-3.8-3.7-3.8-8.7 0-5 2.5-8.8 2.5-3.7 20-7.5 17.5-3.7 35-16.2 17.5-12.5 53.8-58.8 36.2-46.2 80-128.7 43.7-82.5 118.7-243.8 75-161.2 95-190 20-28.7 26.3-32.5 6.2-3.7 17.5-3.7 11.2 0 15 5 1.8 2.5 3.7 5-5.6 1.2-11.2 2.5-11.3 2.5-20 15-8.8 12.5-83.8 185-75 172.5-105 233.8-30 61.2-50 94.9-20 33.8-42.5 63.8-22.5 30-42.5 50-20 20-36.2 28.7-16.3 8.8-16.3 11.3 0 2.5 51.3 30 51.2 27.5 96.2 40 45 12.5 77.5 13.7 32.5 1.3 56.3-1.2 23.7-2.5 81.2-21.3 57.5-18.7 107.5-48.7 50-30 106.3-81.3 56.2-51.2 83.7-85 27.5-33.7 48.8-66.2 21.2-32.5 38.7-65 17.5-32.5 30-63.8 12.5-31.2 22.5-73.7 10-42.5 11.3-87.5 1.2-45-8.8-95-10-50-27.5-90-17.5-40-41.2-75-23.8-35-42.5-53.8-18.8-18.7-35-30-16.3-11.2-48.8-23.7-32.5-12.5-62.5-13.8-30-1.2-56.2 3.8-26.3 5-53.8 15-27.5 10-95 48.7-67.5 38.8-113.7 76.3-46.3 37.5-92.5 83.7-46.3 46.3-77.5 86.3-31.3 40-58.8 91.2-27.5 51.3-32.5 71.3-5 20-3.7 41.2 1.2 21.3 6.2 32.5 5 11.3 18.8 26.3 13.7 15 32.5 28.7 18.7 13.8 35 21.3 16.2 7.5 17.5 12.5 0.6 2.5 1.2 5-12.5-2.5-25-5-25-5-51.2-16.3-26.3-11.2-45-30-18.8-18.7-27.5-46.2-8.8-27.5-7.5-48.8 1.2-21.2 6.2-38.7 5-17.5 23.8-56.3 18.7-38.7 62.5-96.2 43.7-57.5 105-115 61.2-57.5 111.2-93.8 50-36.2 115-70 65-33.7 96.3-43.7 31.2-10 55-13.8 23.7-3.7 60-1.2z"/>
			<path id="Layer" fill-rule="evenodd" class="s0" d="m1623.3 494.8q8.7 1.2 17.5 7.5 8.7 6.2 23.7 8.7 15 2.5 16.3 11.3 0.6 4.3 1.2 8.7-11.9 1.9-23.7 3.8-23.8 3.7-38.8 1.2-15-2.5-20-7.5-5-5-5-13.7 0-8.8 10-15 10-6.3 18.8-5z"/>
			<path id="vajommi" fill-rule="evenodd" class="s1" d="m4388.3 518.5q-0.7 1.3-1.3 2.5 0.6-1.3 1.2-2.5 0.7-1.3 1.3-2.5-0.6 1.3-1.3 2.5z"/>
			<path id="Layer" fill-rule="evenodd" class="s0" d="m1564.5 624.8q5 1.2 6.3 10 1.2 8.7-10.1 22.5-11.2 13.7-24.9 48.7-13.8 35-18.8 58.8-5 23.7-2.5 48.7 2.5 25 6.2 33.8 3.8 8.7 12.5 16.2 8.8 7.5 28.8 5 20-2.5 47.5-18.7 27.5-16.3 30-16.3 1.2 0 2.5 0 0 1.9 0 3.8 0 3.7-5 8.7-5 5-41.3 31.3-36.2 26.2-47.5 27.5-11.2 1.2-18.7-1.3-7.5-2.5-23.8-17.5-16.2-15-23.7-40-7.5-25-5-53.7 2.5-28.8 11.2-52.5 4.4-11.9 8.8-23.8-8.8 4.4-17.5 8.8-17.5 8.7-32.5 12.5-15 3.7-37.5 1.2-22.5-2.5-27.5 21.3-5 23.7-18.8 58.7-13.7 35-26.2 57.5-12.5 22.5-26.3 40-13.7 17.5-26.2 28.8-12.5 11.2-25 17.5-12.5 6.2-26.3 6.2-13.7 0-26.2-10-12.5-10-16.3-22.5-3.7-12.5-2.5-33.7 1.3-21.3 8.8-52.5 7.5-31.3 30-85 22.5-53.8 36.2-72.5 13.8-18.8 26.3-22.5 12.5-3.8 21.2 1.2 4.4 2.5 8.8 5-5.6 1.3-11.3 2.5-11.2 2.5-15 7.5-3.7 5-28.7 71.3-25 66.2-31.3 98.7-6.2 32.5-6.2 51.3 0 18.7 5 21.2 5 2.5 16.2-3.7 11.3-6.3 25-20 13.8-13.8 31.3-40 17.5-26.3 32.5-58.8 15-32.5 25-67.5 10-35 16.2-36.2 6.3-1.3 18.8 2.5 12.5 3.7 38.7-2.5 26.3-6.3 51.3-20 25-13.8 48.7-36.3 23.8-22.5 28.8-21.2z"/>
			<path id="Layer" fill-rule="evenodd" class="s0" d="m2063.3 84.8q6.2 8.7 8.7 29.9 2.5 21.3-25 132.5-27.5 111.3-50 172.5-22.5 61.3-46.3 112.5-23.7 51.3-53.7 100-30 48.8-43.8 65-13.7 16.3-12.5 63.8 1.3 47.5 5 67.5 3.8 20 13.8 42.5 10 22.5 10 27.5 0 2.5 0 5-1.3 0-2.5 0-2.5 0-23.8-27.5-21.2-27.5-32.5-52.5-11.2-25-15-42.5-1.8-8.8-3.7-17.5-14.4 10.6-28.8 21.2-28.7 21.3-40 25-11.2 3.8-28.7 3.8-17.5 0-30-6.3-12.5-6.2-17.5-26.2-5-20 5-40 10-20 32.5-36.3 22.5-16.2 37.5-20 15-3.7 43.7-1.2 28.8 2.5 37.5-55 8.8-57.5 40-152.5 31.3-95 81.3-198.8 50-103.7 72.5-139.9 22.5-36.3 36.2-50 13.8-13.8 18.8-12.5 5 1.2 11.2 10zm-51.2 97.5q-35 66.2-65 137.5-30 71.2-53.8 145-23.7 73.7-35 125-5.6 25.6-11.2 51.2 3.7-3.7 7.5-7.5 7.5-7.5 33.7-50 26.3-42.5 61.3-120 35-77.5 57.5-150 22.5-72.5 33.7-127.5 11.3-55 11.3-62.5 0-3.7 0-7.5-1.3 0-2.5 0-2.5 0-37.5 66.3zm-243.8 527.5q-18.7 3.7-32.5 10-13.7 6.2-28.7 18.7-15 12.5-17.5 21.3-1.3 4.3-2.5 8.7 5.6 0 11.2 0 11.3 0 26.3-7.5 15-7.5 41.2-28.7 13.2-10.7 26.3-21.3-1.3-1.2-2.5-2.5-1.2-1.2-6.6-0.9-5.3 0.3-14.7 2.2z"/>
			<path id="Layer" fill-rule="evenodd" class="s0" d="m1025.8 672.3q23.7 1.2 30 7.5 6.2 6.2 10 17.5 3.7 11.2 1.2 31.2-2.5 20 0 30 2.5 10-15 66.3-17.5 56.2-15 83.7 2.5 27.5 11.3 33.8 8.7 6.2 37.5 8.7 28.7 2.5 30 6.3 0.6 1.8 1.2 3.7-23.1 4.4-46.2 8.8-46.3 8.7-58.8 0-12.5-8.8-17.5-26.3-5-17.5-5-38.7 0-21.3 20-68.8 20-47.5 18.8-50-0.7-1.2-1.3-2.5-13.7 15.6-27.5 31.3-27.5 31.2-95 96.2-67.5 65-82.5 72.5-15 7.5-35 7.5-20 0-25-2.5-5-2.5-8.7-8.7-3.8-6.3-3.8-13.8 0-7.5 3.8-20 3.7-12.5 35-60 31.2-47.5 81.2-103.7 50-56.3 78.8-78.8 28.7-22.5 41.2-27.5 9.4-3.7 25.1-4 5.2-0.1 11.2 0.3zm-45 61.2q-23.8 17.5-46.3 40-22.5 22.5-56.2 63.8-33.8 41.2-52.5 72.5-9.4 15.6-18.8 31.2 12.5-9.4 25-18.7 25-18.8 110-98.8 85-80 86.3-92.5 0.6-6.2 1.2-12.5-6.2-0.6-12.5-1.2-1.6-0.2-3.3-0.1-12.2 1-32.9 16.3z"/>
		</g>
	</g>
</svg>