<svg version="1.2" xmlns="http://www.w3.org/2000/svg" viewBox="0 0 4154 2453" width="4154" height="2453">
	<title>david-hargitai-logo-svg</title>
	<style>
		.s0 { fill: #1481ba } 
	</style>
	<g id="Layer-1">
		<path id="Layer" fill-rule="evenodd" class="s0" d="m4050 0.2q22.3 1.4 41.8 8.4 19.6 7 25.1 12.5 5.6 5.6 15.4 29.3 9.7 23.7 15.3 44.6 5.6 20.9 5.6 37.7 0 16.7-7 94.8-7 78-22.3 163-15.3 85.1-44.6 179.9-29.3 94.8-62.7 168.6-33.5 73.9-73.9 133.9-40.5 59.9-82.3 105.9-41.8 46-114.3 104.6-72.5 58.5-142.2 101.7-69.7 43.2-119.8 68.3-50.2 25.1-113 51.6-62.7 26.5-131 50.2-68.3 23.7-182.6 57.1-114.3 33.5-191 51.6-76.7 18.1-104.5 65.5-27.9 47.4-65.6 97.6-18.8 25.1-37.6 50.2 1.4 0.7 2.8 1.4 2.8 1.4 214.7-78.1 211.9-79.4 323.4-107.3 111.5-27.9 154.7-33.5 43.2-5.5 87.8-5.5 44.6 0 82.3 9.7 37.6 9.8 52.9 18.1 15.4 8.4 39.1 32.1 23.7 23.7 37.6 51.6 14 27.9 22.3 64.1 8.4 36.3 8.4 68.3 0 32.1-9.8 78.1-9.7 46-34.8 119.9-25.1 73.8-57.2 197.9-32 124.1-36.2 125.5-4.2 1.4-8.4-2.8-4.2-4.2-4.2-19.5 0-15.4 8.4-124.1 8.4-108.7 9.8-195.2 1.3-86.4 4.1-100.3 2.8-14 1.4-69.7-1.4-55.8-8.3-75.3-7-19.5-19.5-33.5-12.6-13.9-41.9-22.3-29.2-8.3-55.7-8.3-26.5 0-111.5 12.5-85.1 12.6-167.3 33.5-82.3 20.9-349.9 117.1-267.7 96.2-337.4 165.9-69.7 69.7-149.1 132.4-79.5 62.7-131.1 94.8-51.5 32-96.1 54.3-44.7 22.3-108.8 44.6-64.1 22.4-90.6 26.5-26.5 4.2-57.1 4.2-30.7 0-57.2-4.2-26.5-4.1-53-16.7-26.4-12.5-46-33.4-19.5-21-29.2-47.4-9.8-26.5-9.8-60 0-33.4 13.9-75.3 14-41.8 36.3-75.2 11.1-16.8 22.3-33.5-1.4-0.7-2.8-1.4-2.8-1.4-111.5 26.5-108.7 27.9-227.2 43.2-118.5 15.3-154.8 48.8-36.2 33.5-101.7 85-65.5 51.6-152 107.4-86.4 55.7-189.6 105.9-103.1 50.2-172.8 73.9-69.7 23.7-153.4 39-83.6 15.4-135.2 15.4-51.5 0-87.8-8.4-36.2-8.4-62.7-20.9-26.5-12.6-37.7-20.9-11.1-8.4-22.3-23.7-11.1-15.4-20.9-40.4-9.7-25.1-8.3-48.8 1.4-23.7-18.2-48.8-19.5-25.1-34.8-60-15.3-34.8-16.7-69.7-1.4-34.8 1.4-58.5 2.7-23.7 18.1-68.3 15.3-44.6 39-93.4 23.7-48.8 90.6-142.2 66.9-93.4 125.5-161.7 58.5-68.3 168.7-179.8 110.1-111.6 225.8-216.1 115.7-104.5 217.4-188.2 101.8-83.6 199.4-157.5 97.6-73.9 273.2-191 175.6-117.1 259.3-164.5 83.6-47.4 195.1-100.3 111.6-53 189.6-82.3 78.1-29.3 156.2-50.2 78-20.9 147.7-29.2 69.7-8.4 135.2-2.8 65.6 5.5 110.2 22.3 44.6 16.7 62.7 29.2 18.1 12.6 37.6 32.1 9.8 9.8 19.5 19.5 21.7-25.8 43.3-51.6 43.2-51.5 82.2-85 39-33.4 76.7-53 37.6-19.5 73.9-22.3 36.2-2.8 62.7 8.4 26.5 11.1 48.8 36.2 22.3 25.1 36.2 57.2 14 32.1 22.3 75.3 8.4 43.2 9.8 100.3 1.4 57.2-2.8 108.8-4.2 51.5-18.1 133.8-14 82.2-25.1 122.7-11.2 40.4-9.8 46 0.7 2.8 1.4 5.5 53.7-59.2 107.4-118.4 107.3-118.5 193.7-205 86.4-86.4 174.3-165.8 87.8-79.5 160.3-136.7 72.5-57.1 118.5-87.8 46-30.7 96.2-57.1 50.1-26.5 76.6-33.5 19.9-5.2 37.4-5.7 5.8-0.2 11.4 0.1zm-30.7 82.3q-22.3 8.3-62.7 33.4-40.4 25.1-132.4 97.6-92 72.5-160.3 135.2-68.3 62.8-204.9 203.6-136.7 140.7-303.9 333.1-167.3 192.4-198 266.3-30.6 73.9-61.3 136.6-15.3 31.3-30.7 62.7 67.6-18.8 135.2-37.6 135.3-37.7 216.1-65.5 80.8-27.9 142.2-54.4 61.3-26.5 154.7-78.1 93.4-51.6 161.7-103.1 68.3-51.6 100.4-82.3 32.1-30.6 65.5-71.1 33.5-40.4 60-80.8 26.4-40.4 55.7-103.2 29.3-62.7 53-129.6 23.7-66.9 39-133.8 15.4-67 26.5-159 11.2-92 11.2-114.3 0-22.3-8.4-40.4-8.4-18.1-22.3-20.9-3.5-0.7-7.5-0.7-12 0-28.8 6.3zm-1105.4 125.4q-20.9 8.4-50.2 27.9-29.2 19.5-90.6 86.4-61.3 67-41.8 128.3 19.5 61.3 25.1 107.3 5.6 46 1.4 126.9-4.2 80.8-20.9 170-16.8 89.3-41.8 161.8-25.1 72.4-53 131-27.9 58.5-65.5 118.5-37.7 59.9-97.6 132.4-30 36.2-60 72.5 34.9-10.5 69.7-20.9 69.7-20.9 146.4-118.5 76.7-97.6 168.7-206.3 92-108.7 133.8-245.4 41.8-136.6 58.6-221.6 16.7-85 23.7-146.4 6.9-61.3 5.5-125.4-1.4-64.2-11.1-104.6-9.8-40.4-22.3-58.5-12.6-18.2-34.9-20.9-5.5-0.7-11-0.7-16.5 0-32.2 6.2zm-602.2 114.3q-51.6 8.4-135.2 33.5-83.7 25.1-164.5 58.5-80.9 33.5-168.7 78.1-87.8 44.6-172.8 94.8-85.1 50.2-171.5 107.3-86.4 57.2-186.8 129.7-100.4 72.5-197.9 149.1-97.6 76.7-179.9 146.4-82.2 69.7-179.8 158.9-97.6 89.2-196.5 188.2-99 99-157.6 164.5-58.5 65.5-124 151.9-65.5 86.5-96.2 139.4-30.7 53-47.4 97.6-16.7 44.6-18.1 101.8-0.7 28.6-1.4 57.1 8.3-9 16.7-18.1 16.7-18.1 57.2-46 40.4-27.9 103.1-55.7 62.7-27.9 106-41.9 43.2-13.9 192.3-44.6 149.2-30.6 412.7-59.9 263.4-29.3 324.8-92 61.3-62.7 118.4-131 57.2-68.4 104.6-131.1 47.4-62.7 105.9-150.5 58.6-87.9 110.2-175.7 51.5-87.8 86.4-156.1 34.8-68.3 58.5-124.1 23.7-55.7 44.6-129.6 21-73.9 30.7-83.7 9.8-9.7 18.1-8.3 8.4 1.4 14 9.7 5.5 8.4 2.8 39.1-2.8 30.6-12.6 75.2-9.7 44.7-39 119.9-29.3 75.3-68.3 153.4-39.1 78-87.8 161.7-48.8 83.6-106 170-57.1 86.5-119.9 168.7-62.7 82.3-133.8 161.7-35.5 39.7-71.1 79.5 34.2-5.6 68.3-11.2 68.3-11.1 138-27.9 69.7-16.7 160.3-47.4 90.6-30.6 115.7-41.8 25.1-11.1 94.8-59.9 69.7-48.8 136.6-80.9 66.9-32 97.6-55.7 30.7-23.7 103.2-92 72.5-68.3 114.3-118.5 41.8-50.2 82.2-112.9 40.5-62.8 66.9-118.5 26.5-55.8 55.8-147.8 29.3-92 40.4-167.3 11.2-75.2 11.2-149.1 0-73.9-8.4-115.7-8.4-41.8-11.1-41.8-2.8 0-57.2 86.4-54.4 86.4-160.3 271.8-105.9 185.4-189.6 303.9-83.6 118.5-115.7 157.5-32.1 39.1-97.6 108.8-65.5 69.7-150.5 143.5-85.1 73.9-87.8 79.5-2.8 5.6-11.2 11.1-8.4 5.6-18.1 4.2-9.8-1.4-14-6.9-4.1-5.6-4.1-16.8 0-11.1 18.1-37.6 18.1-26.5 163.1-181.2 145-154.8 214.7-245.4 69.7-90.6 135.2-193.7 65.5-103.2 147.7-246.8 82.3-143.5 138-228.6 55.8-85 40.5-105.9-15.4-20.9-40.5-36.3-25.1-15.3-66.9-25.1-41.8-9.7-85-9.7-43.2 0-94.8 8.3zm323.4 1198.9q-15.3 5.6-99 118.5-41.8 56.4-83.6 112.9 9.8-2.1 19.5-4.2 19.5-4.2 27.9-11.2 8.4-6.9 72.5-97.5 64.1-90.6 73.9-106 4.8-7.6 9.7-15.3-1.4-0.7-2.8-1.4-0.6-0.3-2.1-0.3-4.5 0.3-16 4.5zm-264.8 78q-65.6 22.3-129.7 50.2-64.1 27.9-131 72.5-66.9 44.6-118.5 69.7-51.6 25.1-82.3 48.8-30.6 23.7-76.6 71.1-46 47.4-71.1 83.6-25.1 36.3-36.3 71.1-11.1 34.9-9.7 50.2 1.4 15.3 6.9 27.9 5.6 12.5 25.1 26.5 19.6 13.9 43.3 19.5 23.6 5.6 55.7 4.2 32.1-1.4 57.2-7 25.1-5.6 57.1-16.7 32.1-11.2 72.5-30.7 40.4-19.5 78.1-43.2 37.6-23.7 83.6-58.6 46-34.8 122.7-107.3 38.3-36.2 76.6-72.5-8.3-4.2-16.7-8.3-16.7-8.4-23.7-16.8-6.9-8.3-13.9-27.8-7-19.6-7-36.3 0-16.7 15.3-50.2 15.4-33.4 53-85 37.7-51.6 36.3-54.4-0.2-0.3-1.4-0.3-8.2 0.3-65.5 19.8zm-1449.8 430.8q-188.2 23.7-333.2 54.3-144.9 30.7-214.6 55.8-69.7 25.1-96.2 39-26.5 14-64.1 44.6-37.7 30.7-47.4 47.4-9.8 16.8-9.8 22.3 0 5.6 19.5 30.7 19.5 25.1 19.5 34.9 0 9.7 34.9 22.3 34.8 12.5 76.6 15.3 41.9 2.8 100.4-5.6 58.6-8.3 96.2-18.1 37.6-9.7 117.1-41.8 79.5-32.1 158.9-75.3 79.5-43.2 182.6-117.1 103.2-73.9 135.2-101.7 16.1-14 32.1-27.9-4.9-0.7-9.8-1.4-9.7-1.4-197.9 22.3z"/>
	</g>
</svg>